<svg aria-hidden="true" style="position: absolute; width: 0; height: 0; overflow: hidden;" version="1.1" xmlns="http://www.w3.org/2000/svg" xmlns:xlink="http://www.w3.org/1999/xlink">
<defs>
<symbol id="icon-menu" viewBox="0 0 32 32">
<path d="M4 24v-2h24v2h-24zM4 17v-2h24v2h-24zM4 10v-2h24v2h-24z"></path>
</symbol>
<symbol id="icon-settings" viewBox="0 0 32 32">
<path d="M12.933 29.333l-0.667-4.2q-0.633-0.233-1.333-0.633t-1.233-0.833l-3.933 1.8-3.1-5.467 3.6-2.633q-0.067-0.3-0.083-0.683t-0.017-0.683 0.017-0.683 0.083-0.683l-3.6-2.633 3.1-5.467 3.933 1.8q0.533-0.433 1.233-0.833t1.333-0.6l0.667-4.233h6.133l0.667 4.2q0.633 0.233 1.35 0.617t1.217 0.85l3.933-1.8 3.1 5.467-3.6 2.567q0.067 0.333 0.083 0.717t0.017 0.717-0.017 0.7-0.083 0.7l3.6 2.6-3.1 5.467-3.933-1.8q-0.533 0.433-1.217 0.85t-1.35 0.617l-0.667 4.2h-6.133zM16 20.333q1.8 0 3.067-1.267t1.267-3.067-1.267-3.067-3.067-1.267-3.067 1.267-1.267 3.067 1.267 3.067 3.067 1.267zM16 18.333q-0.967 0-1.65-0.683t-0.683-1.65 0.683-1.65 1.65-0.683 1.65 0.683 0.683 1.65-0.683 1.65-1.65 0.683zM14.533 27.333h2.933l0.467-3.733q1.1-0.267 2.083-0.833t1.783-1.367l3.533 1.533 1.333-2.4-3.133-2.3q0.133-0.567 0.217-1.117t0.083-1.117-0.067-1.117-0.233-1.117l3.133-2.3-1.333-2.4-3.533 1.533q-0.767-0.867-1.733-1.45t-2.133-0.75l-0.467-3.733h-2.933l-0.467 3.733q-1.133 0.233-2.117 0.8t-1.75 1.4l-3.533-1.533-1.333 2.4 3.133 2.3q-0.133 0.567-0.217 1.117t-0.083 1.117 0.083 1.117 0.217 1.117l-3.133 2.3 1.333 2.4 3.533-1.533q0.8 0.8 1.783 1.367t2.083 0.833l0.467 3.733z"></path>
</symbol>
<symbol id="icon-filter" viewBox="0 0 32 32">
<path d="M14.667 26.667q-0.567 0-0.95-0.383t-0.383-0.95v-8l-7.967-10.167q-0.467-0.567-0.133-1.2t1.033-0.633h19.467q0.7 0 1.033 0.633t-0.133 1.2l-7.967 10.167v8q0 0.567-0.383 0.95t-0.95 0.383h-2.667zM16 17.467l8-10.133h-16l8 10.133z"></path>
</symbol>
<symbol id="icon-add" viewBox="0 0 32 32">
<path d="M15 17h-8.333v-2h8.333v-8.333h2v8.333h8.333v2h-8.333v8.333h-2v-8.333z"></path>
</symbol>
<symbol id="icon-apps" viewBox="0 0 32 32">
<path d="M7.533 26.667q-0.933 0-1.567-0.633t-0.633-1.567 0.633-1.567 1.567-0.633 1.567 0.633 0.633 1.567-0.633 1.567-1.567 0.633zM16 26.667q-0.933 0-1.567-0.633t-0.633-1.567 0.633-1.567 1.567-0.633 1.567 0.633 0.633 1.567-0.633 1.567-1.567 0.633zM24.467 26.667q-0.933 0-1.567-0.633t-0.633-1.567 0.633-1.567 1.567-0.633 1.567 0.633 0.633 1.567-0.633 1.567-1.567 0.633zM7.533 18.2q-0.933 0-1.567-0.633t-0.633-1.567 0.633-1.567 1.567-0.633 1.567 0.633 0.633 1.567-0.633 1.567-1.567 0.633zM16 18.2q-0.933 0-1.567-0.633t-0.633-1.567 0.633-1.567 1.567-0.633 1.567 0.633 0.633 1.567-0.633 1.567-1.567 0.633zM24.467 18.2q-0.933 0-1.567-0.633t-0.633-1.567 0.633-1.567 1.567-0.633 1.567 0.633 0.633 1.567-0.633 1.567-1.567 0.633zM7.533 9.733q-0.933 0-1.567-0.633t-0.633-1.567 0.633-1.567 1.567-0.633 1.567 0.633 0.633 1.567-0.633 1.567-1.567 0.633zM16 9.733q-0.933 0-1.567-0.633t-0.633-1.567 0.633-1.567 1.567-0.633 1.567 0.633 0.633 1.567-0.633 1.567-1.567 0.633zM24.467 9.733q-0.933 0-1.567-0.633t-0.633-1.567 0.633-1.567 1.567-0.633 1.567 0.633 0.633 1.567-0.633 1.567-1.567 0.633z"></path>
</symbol>
<symbol id="icon-arrow_downward" viewBox="0 0 32 32">
<path d="M15.967 24l-8.033-8.033 1.4-1.433 5.667 5.567v-13.333h2v13.4l5.6-5.6 1.4 1.4-8.033 8.033z"></path>
</symbol>
<symbol id="icon-arrow_drop_down" viewBox="0 0 32 32">
<path d="M16 20l-6.667-6.633h13.333l-6.667 6.633z"></path>
</symbol>
<symbol id="icon-arrow_drop_up" viewBox="0 0 32 32">
<path d="M9.333 18.667l6.667-6.7 6.667 6.7h-13.333z"></path>
</symbol>
<symbol id="icon-arrow_left" viewBox="0 0 32 32">
<path d="M18.667 22.667l-6.667-6.667 6.667-6.667v13.333z"></path>
</symbol>
<symbol id="icon-arrow_right" viewBox="0 0 32 32">
<path d="M13.333 22.667v-13.333l6.667 6.667-6.667 6.667z"></path>
</symbol>
<symbol id="icon-arrow_upward_alt" viewBox="0 0 32 32">
<path d="M15.067 23.867v-13.333l-5.667 5.567-1.4-1.433 8.033-8.033 8.033 8.033-1.4 1.4-5.6-5.6v13.4h-2z"></path>
</symbol>
<symbol id="icon-autorenew" viewBox="0 0 32 32">
<path d="M6.533 20.967q-0.667-1.2-0.933-2.417t-0.267-2.483q0-4.367 3.15-7.517t7.517-3.15h1.433l-2.667-2.667 1.3-1.3 4.967 4.967-4.967 4.967-1.333-1.333 2.633-2.633h-1.367q-3.567 0-6.117 2.55t-2.55 6.117q0 0.967 0.183 1.833t0.45 1.633l-1.433 1.433zM15.867 30.667l-4.967-4.967 4.967-4.967 1.3 1.3-2.667 2.667h1.5q3.567 0 6.117-2.55t2.55-6.117q0-0.967-0.167-1.833t-0.5-1.633l1.433-1.433q0.667 1.2 0.95 2.417t0.283 2.483q0 4.367-3.15 7.517t-7.517 3.15h-1.5l2.667 2.667-1.3 1.3z"></path>
</symbol>
<symbol id="icon-checklist" viewBox="0 0 32 32">
<path d="M7.4 24.867l-4.733-4.733 1.4-1.4 3.333 3.3 5.967-5.967 1.4 1.433-7.367 7.367zM7.4 14.2l-4.733-4.733 1.4-1.4 3.333 3.3 5.967-5.967 1.4 1.433-7.367 7.367zM17.333 22.333v-2h12v2h-12zM17.333 11.667v-2h12v2h-12z"></path>
</symbol>
<symbol id="icon-close" viewBox="0 0 32 32">
<path d="M8.3 25.1l-1.4-1.4 7.7-7.7-7.7-7.7 1.4-1.4 7.7 7.7 7.7-7.7 1.4 1.4-7.7 7.7 7.7 7.7-1.4 1.4-7.7-7.7-7.7 7.7z"></path>
</symbol>
<symbol id="icon-drag_indicator" viewBox="0 0 32 32">
<path d="M11.664 26.667q-0.964 0-1.647-0.686t-0.683-1.65 0.686-1.647 1.65-0.683 1.647 0.686 0.683 1.65-0.686 1.647-1.65 0.683zM20.33 26.667q-0.964 0-1.647-0.686t-0.683-1.65 0.686-1.647 1.65-0.683 1.647 0.686 0.683 1.65-0.686 1.647-1.65 0.683zM11.664 18.333q-0.964 0-1.647-0.686t-0.683-1.65 0.686-1.647 1.65-0.683 1.647 0.686 0.683 1.65-0.686 1.647-1.65 0.683zM20.33 18.333q-0.964 0-1.647-0.686t-0.683-1.65 0.686-1.647 1.65-0.683 1.647 0.686 0.683 1.65-0.686 1.647-1.65 0.683zM11.664 10q-0.964 0-1.647-0.686t-0.683-1.65 0.686-1.647 1.65-0.683 1.647 0.686 0.683 1.65-0.686 1.647-1.65 0.683zM20.33 10q-0.964 0-1.647-0.686t-0.683-1.65 0.686-1.647 1.65-0.683 1.647 0.686 0.683 1.65-0.686 1.647-1.65 0.683z"></path>
</symbol>
<symbol id="icon-edit" viewBox="0 0 32 32">
<path d="M6 26h1.467l14.767-14.767-1.467-1.467-14.767 14.767v1.467zM26.467 9.8l-4.267-4.267 1.4-1.4q0.567-0.567 1.4-0.567t1.4 0.567l1.467 1.467q0.567 0.567 0.567 1.4t-0.567 1.4l-1.4 1.4zM25.067 11.2l-16.8 16.8h-4.267v-4.267l16.8-16.8 4.267 4.267zM21.5 10.5v0z"></path>
</symbol>
<symbol id="icon-expand_all" viewBox="0 0 32 32">
<path d="M16 29.333l-8-8 1.467-1.467 6.533 6.533 6.533-6.533 1.467 1.467-8 8zM9.467 12.133l-1.467-1.467 8-8 8 8-1.467 1.467-6.533-6.533-6.533 6.533z"></path>
</symbol>
<symbol id="icon-grid_view" viewBox="0 0 32 32">
<path d="M4 15v-11h11v11h-11zM4 28v-11h11v11h-11zM17 15v-11h11v11h-11zM17 28v-11h11v11h-11zM6 13h7v-7h-7v7zM19 13h7v-7h-7v7zM19 26h7v-7h-7v7zM6 26h7v-7h-7v7z"></path>
</symbol>
<symbol id="icon-history" viewBox="0 0 32 32">
<path d="M15.9 28q-4.967 0-8.433-3.517t-3.467-8.517h2q0 4.167 2.867 7.1t7.033 2.933q4.233 0 7.167-2.967t2.933-7.2q0-4.133-2.967-6.983t-7.133-2.85q-2.267 0-4.25 1.033t-3.45 2.733h3.5v2h-6.967v-6.933h2v3.533q1.733-2.033 4.117-3.2t5.050-1.167q2.5 0 4.7 0.933t3.85 2.55 2.6 3.783 0.95 4.667-0.95 4.7-2.6 3.833-3.85 2.583-4.7 0.95zM20.167 21.433l-5.133-5.067v-7.133h2v6.3l4.567 4.467-1.433 1.433z"></path>
</symbol>
<symbol id="icon-instant_mix" viewBox="0 0 32 32">
<path d="M6.733 26.667v-9.8h-2.733v-2h7.467v2h-2.733v9.8h-2zM6.733 12.867v-7.533h2v7.533h-2zM12.267 11.5v-2h2.733v-4.167h2v4.167h2.733v2h-7.467zM15 26.667v-13.167h2v13.167h-2zM23.267 26.667v-4.233h-2.733v-2h7.467v2h-2.733v4.233h-2zM23.267 18.433v-13.1h2v13.1h-2z"></path>
</symbol>
<symbol id="icon-keyboard_arrow_down" viewBox="0 0 32 32">
<path d="M16 20.533l-8-8 1.433-1.433 6.567 6.567 6.567-6.567 1.433 1.433-8 8z"></path>
</symbol>
<symbol id="icon-keyboard_arrow_left" viewBox="0 0 32 32">
<path d="M18.7 24l-8.033-8.033 8.033-8.033 1.433 1.433-6.6 6.6 6.6 6.6-1.433 1.433z"></path>
</symbol>
<symbol id="icon-keyboard_arrow_right" viewBox="0 0 32 32">
<path d="M17.667 15.967l-6.6-6.6 1.433-1.433 8.033 8.033-8.033 8.033-1.433-1.433 6.6-6.6z"></path>
</symbol>
<symbol id="icon-keyboard_arrow_up" viewBox="0 0 32 32">
<path d="M16 13.533l-6.567 6.567-1.433-1.433 8-8 8 8-1.433 1.433-6.567-6.567z"></path>
</symbol>
<symbol id="icon-keyboard_double_arrow_down" viewBox="0 0 32 32">
<path d="M16 25.333l-8-8 1.4-1.4 6.6 6.6 6.6-6.6 1.4 1.4-8 8zM16 16.9l-8-8 1.4-1.4 6.6 6.6 6.6-6.6 1.4 1.4-8 8z"></path>
</symbol>
<symbol id="icon-keyboard_double_arrow_up" viewBox="0 0 32 32">
<path d="M9.4 24.5l-1.4-1.4 8-8 8 8-1.4 1.4-6.6-6.6-6.6 6.6zM9.4 16.067l-1.4-1.4 8-8 8 8-1.4 1.4-6.6-6.6-6.6 6.6z"></path>
</symbol>
<symbol id="icon-link" viewBox="0 0 32 32">
<path d="M15 22.667h-5.667q-2.767 0-4.717-1.95t-1.95-4.717 1.95-4.717 4.717-1.95h5.667v2h-5.667q-1.944 0-3.306 1.359t-1.361 3.3 1.361 3.308 3.306 1.367h5.667v2zM10.833 17v-2h10.333v2h-10.333zM17 22.667v-2h5.667q1.944 0 3.306-1.359t1.361-3.3-1.361-3.308-3.306-1.367h-5.667v-2h5.667q2.767 0 4.717 1.95t1.95 4.717-1.95 4.717-4.717 1.95h-5.667z"></path>
</symbol>
<symbol id="icon-link_off" viewBox="0 0 32 32">
<path d="M25 22.3l-1.633-1.633q1.7-0.333 2.833-1.6t1.133-2.967q0-1.933-1.367-3.3t-3.3-1.367h-5.167v-2h5.167q2.767 0 4.717 1.95t1.95 4.717q0 2.067-1.2 3.733t-3.133 2.467zM19.8 17.1l-2-2h3.367v2h-1.367zM27.133 30.133l-25.033-25.033 1.433-1.433 25.033 25.033-1.433 1.433zM15 22.667h-5.667q-2.767 0-4.717-1.95t-1.95-4.717q0-2.4 1.483-4.233t3.783-2.3l1.867 1.867h-0.467q-1.933 0-3.3 1.367t-1.367 3.3 1.367 3.3 3.3 1.367h5.667v2zM10.833 17v-2h2.633l2 2h-4.633z"></path>
</symbol>
<symbol id="icon-more_horiz" viewBox="0 0 32 32">
<path d="M6.929 17.6q-0.662 0-1.129-0.471t-0.467-1.133 0.471-1.129 1.133-0.467 1.129 0.471 0.467 1.133-0.471 1.129-1.133 0.467zM15.995 17.6q-0.662 0-1.129-0.471t-0.467-1.133 0.471-1.129 1.133-0.467 1.129 0.471 0.467 1.133-0.471 1.129-1.133 0.467zM25.062 17.6q-0.662 0-1.129-0.471t-0.467-1.133 0.471-1.129 1.133-0.467 1.129 0.471 0.467 1.133-0.471 1.129-1.133 0.467z"></path>
</symbol>
<symbol id="icon-more_vert" viewBox="0 0 32 32">
<path d="M15.995 26.667q-0.662 0-1.129-0.471t-0.467-1.133 0.471-1.129 1.133-0.467 1.129 0.471 0.467 1.133-0.471 1.129-1.133 0.467zM15.995 17.6q-0.662 0-1.129-0.471t-0.467-1.133 0.471-1.129 1.133-0.467 1.129 0.471 0.467 1.133-0.471 1.129-1.133 0.467zM15.995 8.533q-0.662 0-1.129-0.471t-0.467-1.133 0.471-1.129 1.133-0.467 1.129 0.471 0.467 1.133-0.471 1.129-1.133 0.467z"></path>
</symbol>
<symbol id="icon-notifications" viewBox="0 0 32 32">
<path d="M5.333 25.333v-2h2.667v-10.133q0-2.8 1.65-5.017t4.35-2.783v-0.733q0-0.833 0.583-1.417t1.417-0.583 1.417 0.583 0.583 1.417v0.733q2.7 0.567 4.35 2.783t1.65 5.017v10.133h2.667v2h-21.333zM16 29.333q-1.1 0-1.883-0.783t-0.783-1.883h5.333q0 1.1-0.783 1.883t-1.883 0.783zM10 23.333h12v-10.133q0-2.5-1.75-4.25t-4.25-1.75-4.25 1.75-1.75 4.25v10.133z"></path>
</symbol>
<symbol id="icon-person" viewBox="0 0 32 32">
<path d="M16 15.967q-2.2 0-3.6-1.4t-1.4-3.6 1.4-3.6 3.6-1.4 3.6 1.4 1.4 3.6-1.4 3.6-3.6 1.4zM5.333 26.667v-3.133q0-1.267 0.633-2.167t1.633-1.367q2.233-1 4.283-1.5t4.117-0.5 4.1 0.517 4.264 1.49q1.043 0.471 1.673 1.366t0.63 2.161v3.133h-21.333zM7.333 24.667h17.333v-1.133q0-0.533-0.317-1.017t-0.783-0.717q-2.133-1.033-3.9-1.417t-3.667-0.383-3.7 0.383-3.9 1.417q-0.467 0.233-0.767 0.717t-0.3 1.017v1.133zM16 13.967q1.3 0 2.15-0.85t0.85-2.15-0.85-2.15-2.15-0.85-2.15 0.85-0.85 2.15 0.85 2.15 2.15 0.85z"></path>
</symbol>
<symbol id="icon-remove" viewBox="0 0 32 32">
<path d="M6.667 17v-2h18.667v2h-18.667z"></path>
</symbol>
<symbol id="icon-save" viewBox="0 0 32 32">
<path d="M28 9.233v16.767q0 0.8-0.6 1.4t-1.4 0.6h-20q-0.8 0-1.4-0.6t-0.6-1.4v-20q0-0.8 0.6-1.4t1.4-0.6h16.767l5.233 5.233zM26 10.133l-4.133-4.133h-15.867v20h20v-15.867zM15.992 23.833q1.441 0 2.458-1.009t1.017-2.45-1.009-2.458-2.45-1.017-2.458 1.009-1.017 2.45 1.009 2.458 2.45 1.017zM7.767 12.533h11.933v-4.767h-11.933v4.767zM6 10.133v0z"></path>
</symbol>
<symbol id="icon-search" viewBox="0 0 32 32">
<path d="M26.533 27.967l-8.767-8.767q-1 0.867-2.332 1.35t-2.835 0.483q-3.605 0-6.103-2.5t-2.497-6.033 2.5-6.033 6.050-2.5 6.033 2.5 2.483 6.038q0 1.428-0.467 2.762t-1.4 2.5l8.8 8.733-1.467 1.467zM12.567 19.033q2.708 0 4.604-1.917t1.896-4.617-1.896-4.617-4.604-1.917q-2.736 0-4.651 1.917t-1.915 4.617 1.915 4.617 4.651 1.917z"></path>
</symbol>
<symbol id="icon-task_alt" viewBox="0 0 32 32">
<path d="M16 29.333q-2.833 0-5.267-1.017t-4.233-2.817-2.817-4.233-1.017-5.267q0-2.8 1.017-5.233t2.817-4.233 4.233-2.833 5.267-1.033q2.5 0 4.667 0.8t3.9 2.2l-1.433 1.433q-1.467-1.167-3.267-1.8t-3.867-0.633q-4.833 0-8.083 3.25t-3.25 8.083 3.25 8.083 8.083 3.25 8.083-3.25 3.25-8.083q0-1-0.15-1.95t-0.45-1.85l1.533-1.533q0.533 1.233 0.8 2.567t0.267 2.767q0 2.833-1.033 5.267t-2.833 4.233-4.233 2.817-5.233 1.017zM14.033 22.067l-5.5-5.533 1.5-1.5 4 4 13.8-13.8 1.533 1.5-15.333 15.333z"></path>
</symbol>
<symbol id="icon-translate" viewBox="0 0 32 32">
<path d="M15.833 29.333l6.033-16h2.733l6.2 16h-2.9l-1.367-4.2h-6.4l-1.567 4.2h-2.733zM20.867 22.8h4.733l-2.333-6.467h-0.067l-2.333 6.467zM5.333 25.333l-1.833-1.833 6.8-6.8q-1.267-1.467-2.25-2.95t-1.717-3.083h2.9q0.567 1.1 1.25 2.083t1.55 2.017q1.5-1.567 2.5-3.25t1.7-3.517h-14.9v-2.667h9.333v-2.667h2.667v2.667h9.333v2.667h-3.767q-0.733 2.3-1.95 4.517t-2.983 4.217l3.267 3.3-1 2.7-4.233-4.067-6.667 6.667z"></path>
</symbol>
<symbol id="icon-view_kanban" viewBox="0 0 32 32">
<path d="M9.3 22.767h2v-13.533h-2v13.533zM15 16.1h2v-6.867h-2v6.867zM20.7 20.1h2v-10.867h-2v10.867zM6 28q-0.8 0-1.4-0.6t-0.6-1.4v-20q0-0.8 0.6-1.4t1.4-0.6h20q0.8 0 1.4 0.6t0.6 1.4v20q0 0.8-0.6 1.4t-1.4 0.6h-20zM6 26h20v-20h-20v20zM6 6v0z"></path>
</symbol>
<symbol id="icon-view_list" viewBox="0 0 32 32">
<path d="M11.667 24.667h15.667v-4.567h-15.667v4.567zM4.667 11.9h5v-4.567h-5v4.567zM4.667 18.133h5v-4.233h-5v4.233zM4.667 24.667h5v-4.567h-5v4.567zM11.667 18.133h15.667v-4.233h-15.667v4.233zM11.667 11.9h15.667v-4.567h-15.667v4.567zM4.667 26.667q-0.8 0-1.4-0.6t-0.6-1.4v-17.333q0-0.8 0.6-1.4t1.4-0.6h22.667q0.8 0 1.4 0.6t0.6 1.4v17.333q0 0.8-0.6 1.4t-1.4 0.6h-22.667z"></path>
</symbol>
</defs>
</svg>
